<svg width="52" height="52" viewBox="0 0 52 52" fill="none" xmlns="http://www.w3.org/2000/svg"><g clip-path="url(#clip0_6358_2266)"><g filter="url(#filter0_b_6358_2266)"><path d="M0 26C0 11.6406 11.6406 0 26 0C40.3594 0 52 11.6406 52 26C52 40.3594 40.3594 52 26 52C11.6406 52 0 40.3594 0 26Z" fill="none"></path><g clip-path="url(#clip1_6358_2266)"><path d="M35.7503 19.2496V23.7496C35.7503 23.9485 35.6712 24.1392 35.5306 24.2799C35.3899 24.4206 35.1992 24.4996 35.0003 24.4996H30.5003C30.3013 24.4996 30.1106 24.4206 29.9699 24.2799C29.8293 24.1392 29.7503 23.9485 29.7503 23.7496C29.7503 23.5507 29.8293 23.3599 29.9699 23.2192C30.1106 23.0786 30.3013 22.9996 30.5003 22.9996H33.069L30.5762 20.7158L30.5528 20.6933C29.5103 19.6513 28.1839 18.9395 26.7393 18.6469C25.2947 18.3543 23.7959 18.4938 22.4302 19.0481C21.0644 19.6024 19.8922 20.5468 19.0601 21.7633C18.2279 22.9799 17.7727 24.4147 17.7512 25.8885C17.7298 27.3623 18.1431 28.8097 18.9395 30.05C19.7359 31.2903 20.8801 32.2684 22.2292 32.8622C23.5782 33.4559 25.0723 33.639 26.5248 33.3886C27.9774 33.1381 29.3239 32.4652 30.3962 31.4539C30.5408 31.3172 30.7338 31.2435 30.9327 31.249C31.1316 31.2546 31.3202 31.3389 31.457 31.4835C31.5937 31.6281 31.6674 31.821 31.6619 32.02C31.6564 32.2189 31.572 32.4075 31.4274 32.5443C29.7601 34.1256 27.5482 35.0047 25.2503 34.9996H25.1265C23.6525 34.9794 22.206 34.5974 20.9142 33.8873C19.6224 33.1772 18.5248 32.1606 17.7179 30.9269C16.9109 29.6933 16.4194 28.2803 16.2864 26.8122C16.1535 25.344 16.3832 23.8657 16.9554 22.5072C17.5275 21.1486 18.4246 19.9514 19.5679 19.0207C20.7111 18.0901 22.0654 17.4545 23.5118 17.1698C24.9582 16.8851 26.4524 16.9601 27.863 17.3881C29.2736 17.8162 30.5575 18.5841 31.6018 19.6246L34.2503 22.0433V19.2496C34.2503 19.0507 34.3293 18.8599 34.4699 18.7192C34.6106 18.5786 34.8013 18.4996 35.0003 18.4996C35.1992 18.4996 35.3899 18.5786 35.5306 18.7192C35.6712 18.8599 35.7503 19.0507 35.7503 19.2496Z" fill="#F1F3F9"></path></g></g></g><defs><filter id="filter0_b_6358_2266" x="-25" y="-25" width="102" height="102" filterUnits="userSpaceOnUse" color-interpolation-filters="sRGB"><feFlood flood-opacity="0" result="BackgroundImageFix"></feFlood><feGaussianBlur in="BackgroundImageFix" stdDeviation="12.5"></feGaussianBlur><feComposite in2="SourceAlpha" operator="in" result="effect1_backgroundBlur_6358_2266"></feComposite><feBlend mode="normal" in="SourceGraphic" in2="effect1_backgroundBlur_6358_2266" result="shape"></feBlend></filter><clipPath id="clip0_6358_2266"><path d="M0 26C0 11.6406 11.6406 0 26 0V0C40.3594 0 52 11.6406 52 26V26C52 40.3594 40.3594 52 26 52V52C11.6406 52 0 40.3594 0 26V26Z" fill="white"></path></clipPath><clipPath id="clip1_6358_2266"><rect width="24" height="24" fill="white" transform="translate(14 14)"></rect></clipPath></defs></svg>