<svg width="52" height="52" viewBox="0 0 52 52" fill="none" xmlns="http://www.w3.org/2000/svg"><g clip-path="url(#clip0_6358_1711)"><g filter="url(#filter0_b_6358_1711)"><path d="M0 26C0 11.6406 11.6406 0 26 0C40.3594 0 52 11.6406 52 26C52 40.3594 40.3594 52 26 52C11.6406 52 0 40.3594 0 26Z" fill="none"></path><g clip-path="url(#clip1_6358_1711)"><path d="M35.75 25.9993C35.7502 28.3655 34.8186 30.6365 33.1569 32.3209C31.4951 34.0053 29.2369 34.9675 26.8709 34.9993H26.75C24.4515 35.0051 22.239 34.1254 20.5719 32.5431C20.5003 32.4754 20.4427 32.3942 20.4025 32.3043C20.3623 32.2143 20.3402 32.1173 20.3374 32.0188C20.3347 31.9203 20.3514 31.8222 20.3865 31.7302C20.4217 31.6381 20.4746 31.5539 20.5423 31.4823C20.6101 31.4107 20.6912 31.3531 20.7812 31.3129C20.8711 31.2727 20.9681 31.2506 21.0666 31.2478C21.1651 31.2451 21.2632 31.2618 21.3553 31.2969C21.4473 31.3321 21.5315 31.385 21.6031 31.4528C22.6754 32.464 24.022 33.1369 25.4745 33.3874C26.927 33.6378 28.4211 33.4547 29.7702 32.861C31.1192 32.2672 32.2634 31.2891 33.0598 30.0488C33.8562 28.8086 34.2695 27.3611 34.2481 25.8873C34.2266 24.4135 33.7714 22.9787 32.9392 21.7622C32.1071 20.5456 30.9349 19.6012 29.5692 19.0469C28.2034 18.4927 26.7046 18.3531 25.26 18.6457C23.8154 18.9383 22.489 19.6501 21.4466 20.6921C21.4389 20.7004 21.4308 20.7082 21.4222 20.7156L18.9303 22.9993H21.5C21.6989 22.9993 21.8897 23.0783 22.0303 23.219C22.171 23.3596 22.25 23.5504 22.25 23.7493C22.25 23.9482 22.171 24.139 22.0303 24.2797C21.8897 24.4203 21.6989 24.4993 21.5 24.4993H17C16.8011 24.4993 16.6103 24.4203 16.4697 24.2797C16.329 24.139 16.25 23.9482 16.25 23.7493V19.2493C16.25 19.0504 16.329 18.8596 16.4697 18.719C16.6103 18.5783 16.8011 18.4993 17 18.4993C17.1989 18.4993 17.3897 18.5783 17.5303 18.719C17.671 18.8596 17.75 19.0504 17.75 19.2493V22.0431L20.3984 19.6243C21.6584 18.3692 23.262 17.5156 25.0067 17.1711C26.7515 16.8266 28.5592 17.0068 30.2016 17.6888C31.8441 18.3709 33.2476 19.5243 34.2351 21.0033C35.2226 22.4824 35.7497 24.2209 35.75 25.9993Z" fill="#F1F3F9"></path></g></g></g><defs><filter id="filter0_b_6358_1711" x="-25" y="-25" width="102" height="102" filterUnits="userSpaceOnUse" color-interpolation-filters="sRGB"><feFlood flood-opacity="0" result="BackgroundImageFix"></feFlood><feGaussianBlur in="BackgroundImageFix" stdDeviation="12.5"></feGaussianBlur><feComposite in2="SourceAlpha" operator="in" result="effect1_backgroundBlur_6358_1711"></feComposite><feBlend mode="normal" in="SourceGraphic" in2="effect1_backgroundBlur_6358_1711" result="shape"></feBlend></filter><clipPath id="clip0_6358_1711"><path d="M0 26C0 11.6406 11.6406 0 26 0V0C40.3594 0 52 11.6406 52 26V26C52 40.3594 40.3594 52 26 52V52C11.6406 52 0 40.3594 0 26V26Z" fill="white"></path></clipPath><clipPath id="clip1_6358_1711"><rect width="24" height="24" fill="white" transform="translate(14 14)"></rect></clipPath></defs></svg>